<svg xmlns="http://www.w3.org/2000/svg" viewBox="0 0 1200 630" width="1200" height="630">
  <defs>
    <linearGradient id="g" x1="0" y1="0" x2="1" y2="1">
      <stop offset="0" stop-color="#0d1117"/>
      <stop offset="1" stop-color="#120b22"/>
    </linearGradient>
    <linearGradient id="t" x1="0" y1="0" x2="1" y2="0">
      <stop offset="0" stop-color="#a78bfa"/>
      <stop offset="1" stop-color="#38bdf8"/>
    </linearGradient>
  </defs>
  <rect width="1200" height="630" fill="url(#g)"/>
  <circle cx="1010" cy="80" r="360" fill="#7c3aed" opacity="0.12"/>
  <circle cx="120" cy="560" r="300" fill="#38bdf8" opacity="0.08"/>

  <g transform="translate(90,150)">
    <rect x="0" y="0" width="88" height="88" rx="18" fill="none" stroke="#a78bfa" stroke-width="6"/>
    <rect x="20" y="22" width="48" height="8" rx="4" fill="#a78bfa"/>
    <rect x="20" y="40" width="48" height="8" rx="4" fill="#a78bfa"/>
    <rect x="20" y="58" width="30" height="8" rx="4" fill="#7c3aed"/>
  </g>

  <text x="210" y="220" font-family="ui-monospace, SFMono-Regular, Menlo, monospace" font-size="82" font-weight="800" fill="url(#t)">ScrivaDB</text>

  <text x="92" y="340" font-family="system-ui, -apple-system, Segoe UI, sans-serif" font-size="44" font-weight="700" fill="#e6edf3">A file-based document database.</text>
  <text x="92" y="404" font-family="system-ui, -apple-system, Segoe UI, sans-serif" font-size="44" font-weight="700" fill="url(#t)">One binary. Human-readable storage.</text>

  <text x="92" y="486" font-family="system-ui, -apple-system, Segoe UI, sans-serif" font-size="30" fill="#8b949e">Append-only NDJSON · gRPC + REST · embeddable Go engine · MIT</text>

  <g font-family="ui-monospace, SFMono-Regular, Menlo, monospace" font-size="26" fill="#c9d1d9">
    <rect x="92" y="524" width="150" height="46" rx="10" fill="#161b22" stroke="#30363d"/>
    <text x="112" y="554">gRPC</text>
    <rect x="258" y="524" width="130" height="46" rx="10" fill="#161b22" stroke="#30363d"/>
    <text x="278" y="554">REST</text>
    <rect x="404" y="524" width="200" height="46" rx="10" fill="#161b22" stroke="#30363d"/>
    <text x="424" y="554">7 SDKs</text>
  </g>
</svg>
